
<svg id="Logo-Lion" version="1.2" baseProfile="tiny" xmlns="http://www.w3.org/2000/svg" xmlns:xlink="http://www.w3.org/1999/xlink"> 
  <defs>
  
  <g id="Logo-Group">
	<g id="Logo-Text">
		<path id="VintiDesign" class="Text" d="M83.25,325H13l35,69.31ZM28,335H68.21L48.09,374.53ZM93.51,325h9.95v68.53H93.51ZM174,325h-9.95v46.91l-51.45-47.46v69.08h9.95V347.19L174,394.5Zm31.8,19.89h9.95v48.63h-9.95ZM183.18,325h55.13v7.75H183.18Zm64.38,0h9.95v68.53h-9.95Zm100.79,34.38a36.2,36.2,0,0,0-2.58-14.1,29.25,29.25,0,0,0-6.74-9.79,9.34,9.34,0,0,0-1.41-1.17c-10-8.54-24.2-9.24-28.35-9.24h-22.4v1.1l37.28,56.94-2,.63c-6.74,2.11-13.86,2-20.83,2h-4.54V355.42h-9.95v38.3h22.79c3.05,0,19-.55,29.45-10.65a28.45,28.45,0,0,0,6.58-9.71A35.13,35.13,0,0,0,348.35,359.41Zm-9.87,10.73a21.22,21.22,0,0,1-4.78,7l-.08.08-2,1.64-29.13-46,9,.08a42.75,42.75,0,0,1,6.58.78c4.39.78,10.65,2.74,15.51,7.36a20,20,0,0,1,4.78,7.21,26.86,26.86,0,0,1,2,11A30.23,30.23,0,0,1,338.48,370.14ZM406.7,333v-8H356.5V343.2h9.95V333Zm-4.46,30.23v-7.91H356.5v38.22h50.2v-7.91H366.44v-22.4Zm59.52,13.08c0-10.89-10-15.27-18.87-19l-1.57-.63A55.21,55.21,0,0,1,430.66,351c-3.45-2.51-5.17-5.4-5.17-8.61,0-5.72,5.4-9.87,12.84-9.87a17.78,17.78,0,0,1,7.36,1.64,12.06,12.06,0,0,1,4.23,3.92l8.93-3.45c-4.23-6.34-11.67-10-20.44-10-6.34,0-12.06,1.88-16.21,5.4a16.58,16.58,0,0,0-6.27,13.08c0,4.86,2,8.93,6.11,12.37,3.6,3.13,8.38,5.33,13,7.28l.47.23C442,365.75,451,369.59,451,377a8.5,8.5,0,0,1-4.62,7.6,18.39,18.39,0,0,1-9.71,2.35,20.47,20.47,0,0,1-9.16-2c-1.49,1.41-3.13,2.82-4.62,4.23-.7.63-1.41,1.25-2,1.88a31.29,31.29,0,0,0,15.74,3.92c6.89,0,13.24-1.8,17.86-5.09C459.25,386.43,461.75,381.81,461.75,376.33ZM471,325h9.95v68.53H471Zm85,52,.47-1V355.1H530V364h17.46v9.48l-.23.39a27.26,27.26,0,0,1-8.61,8.3,26.39,26.39,0,0,1-13.31,3.68,25.55,25.55,0,0,1-18.56-7.75,26.09,26.09,0,0,1,.08-37,25.55,25.55,0,0,1,18.56-7.75,26.22,26.22,0,0,1,9,1.57l5.33-7.44a34.94,34.94,0,0,0-28-.23,32.44,32.44,0,0,0-11.2,7.52,31.38,31.38,0,0,0-7.52,11.2,34.53,34.53,0,0,0,0,27.33,32.44,32.44,0,0,0,7.52,11.2,31.38,31.38,0,0,0,11.2,7.52,34.63,34.63,0,0,0,13.71,2.82,36,36,0,0,0,17.93-4.93A36.69,36.69,0,0,0,556,377Zm61.09-52v46.91l-51.38-47.46v13.86L627,394.5V325Zm-51.38,29.68v38.84h9.87V363.87Z" transform="translate(-13 -84.41)"/>    
	</g>
	<path id="Lion" d="M400,84.91H240.9l-47,79L320,294.8,446.09,164Zm-118,38.84-10.73-10.65h0l-19-19H388.37L364.72,117.8l-6.19,6Zm93.59,39c-7,6.66-29.6,29.68-31.56,51.3l-20,21.54V196.12a2.53,2.53,0,0,1,.63-1.64l15.9-18.25a2.06,2.06,0,0,0,.55-1.17l5.17-28.66,12.06-13.24Zm-80.35-16.37,4.62,29.29a2.72,2.72,0,0,0,.55,1.17l15.9,18.25a2.53,2.53,0,0,1,.63,1.64l-.23,38.69L295.17,214c-2-21.54-24.59-44.56-31.56-51.22l17.78-29.68Zm-18.72-17.86-19.11,31.8H207.46a7.53,7.53,0,0,1,.86-2.19L243.88,98a7.45,7.45,0,0,1,1.17-1.57Zm-18.17,38.37a154.8,154.8,0,0,1,13.31,14.33l-23,26.16L209.1,166.83Zm17.46,19.66c6.42,8.69,12.14,19,12.84,28.51l-7.75,25.53-28-28.74Zm17.78,35.16,23.42,23.81v32.27l-30.78-31.64Zm13.78-49.5a2.06,2.06,0,0,1-.55-1.17l-3.92-25.53a2.12,2.12,0,0,0-.78-1.33l-13.39-13.86h63.67L339,144a3.33,3.33,0,0,0-.78,1.33l-4.23,25a2.79,2.79,0,0,1-1.49,1.88Zm16.29,73.38,21.77-23.34,7.91,23.89L323.6,277.81Zm26.86-29.45v-.55c.55-9.32,7-20.36,13.08-29l23.81,25.61-28.82,29.6ZM367.93,181a128.79,128.79,0,0,1,12.92-14.1h50.67l-39.47,40.57Zm13.78-20.75-18.56-31.72,2.51-2.35a1.08,1.08,0,0,0,.23-.31l29.53-29.53a5.87,5.87,0,0,1,1.17,1.57l35.56,60.15a8.49,8.49,0,0,1,.86,2.19Z" transform="translate(-13 -84.41)"/>     
	</g>
  </defs>
</svg>

<svg id="Logo" class="Animate-Path" width="100%" height="100%" viewBox="0 0 612 792" xml:space="preserve">
  <use id="Draw-Lion" class="Animate-Draw" xlink:href="#Lion" />
  <use id="Draw-Text" class="Animate-Draw" xlink:href="#Logo-Text" />
  <!--<use class="Animate-Fill" xlink:href="#Logo-Group" /> -->
</svg> 